The.Town.DVDRip.XviD.Feel-Free

Language: English
Genre:Crime | Drama | Thriller
IMDB:http://www.imdb.com/title/tt0840361/
Source:DVD-Replica -Thanks


General
Complete name :The.Town.DVDRip.XviD.Feel-Free
Format : MPEG-4
Format profile : Base Media
Codec ID : mp42
File size : 1.86 GiB
Duration : 2h 4mn
Overall bit rate : 2 135 Kbps
Video #1
ID : 1
Format : MPEG-4 Visual
Format profile : AdvancedSimple@L5
Format settings, BVOP : No
Format settings, QPel : Yes
Format settings, GMC : No warppoints
Format settings, Matrix : Default (H.263)
Codec ID : 20
Duration : 2h 4mn
Bit rate mode : Constant
Bit rate : 1 682 Kbps
Nominal bit rate : 64.0 Kbps
Width : 720 pixels
Height : 304 pixels
Display aspect ratio : 2.35:1
Frame rate mode : Constant
Frame rate : 23.976 fps
Resolution : 24 bits
Colorimetry : 4:2:0
Scan type : Progressive
Bits/(Pixel*Frame) : 0.321
Stream size : 1.47 GiB (79%)
Writing library : XviD 1.2.1 (UTC 2008-12-04)
Audio #2
ID : 2
Format : AAC
Format/Info : Advanced Audio Codec
Format version : Version 4
Format profile : LC
Format settings, SBR : No
Codec ID : 40
Duration : 2h 4mn
Bit rate mode : Constant
Bit rate : 449 Kbps
Nominal bit rate : 480 Kbps
Channel(s) : 6 channels
Channel positions : Front: L C R, Rear: L R, LFE
Sampling rate : 48.0 KHz
Resolution : 16 bits
Stream size : 401 MiB (21%)

Plot:
As he plans his next job, a longtime thief tries to balance his feelings for a bank manager connected to one of his earlier heists, as well as the FBI agent looking to bring him and his crew down


screens 
http://rapidhdd.com/images/751654vlcsnap-2010-12-03-14h02m07s83.png
http://www.rapidhdd.com/images/468996vlcsnap-2010-12-03-14h05m53s50.png
http://www.rapidhdd.com/images/381695vlcsnap-2010-12-03-14h02m33s93.png
http://www.rapidhdd.com/images/908346vlcsnap-2010-12-03-14h04m51s196.png
http://www.rapidhdd.com/images/648327vlcsnap-2010-12-03-14h04m45s141.png